<?xml version="1.0" encoding="UTF-8"?>
<svg xmlns="http://www.w3.org/2000/svg" xmlns:xlink="http://www.w3.org/1999/xlink" width="16px" height="16px" viewBox="0 0 16 16" version="1.1">
<g id="surface1">
<path style=" stroke:none;fill-rule:evenodd;fill:rgb(98.039216%,98.039216%,98.431373%);fill-opacity:1;" d="M 7.617188 4.65625 C 6.578125 4.816406 5.777344 5.308594 5.230469 6.117188 C 4.757812 6.820312 4.5625 7.796875 4.726562 8.644531 C 4.832031 9.183594 4.957031 9.5 5.234375 9.910156 C 6.042969 11.117188 7.445312 11.636719 8.9375 11.285156 C 9.757812 11.09375 10.433594 10.621094 10.851562 9.957031 C 10.957031 9.789062 11.105469 9.492188 11.105469 9.449219 C 11.105469 9.425781 11.046875 9.425781 10.46875 9.429688 L 9.835938 9.433594 L 9.75 9.570312 C 9.054688 10.730469 7.214844 10.785156 6.304688 9.671875 C 5.585938 8.789062 5.59375 7.21875 6.320312 6.34375 C 7.109375 5.394531 8.707031 5.292969 9.507812 6.140625 C 9.625 6.265625 9.660156 6.3125 9.78125 6.511719 L 9.839844 6.609375 L 10.472656 6.609375 C 11.203125 6.609375 11.140625 6.632812 11.03125 6.40625 C 10.636719 5.570312 9.90625 4.980469 8.96875 4.746094 C 8.832031 4.710938 8.738281 4.695312 8.46875 4.65625 C 8.332031 4.636719 7.742188 4.636719 7.617188 4.65625 "/>
<path style=" stroke:none;fill-rule:evenodd;fill:rgb(1.568627%,32.941176%,80%);fill-opacity:1;" d="M 0 8 L 0 16 L 16 16 L 16 0 L 0 0 L 0 8 M 8.671875 4.65625 C 9.8125 4.851562 10.71875 5.542969 11.109375 6.507812 C 11.164062 6.648438 11.203125 6.640625 10.480469 6.640625 C 9.765625 6.640625 9.824219 6.652344 9.734375 6.496094 C 9.136719 5.457031 7.496094 5.277344 6.542969 6.152344 C 6.363281 6.3125 6.046875 6.742188 6.046875 6.820312 C 6.046875 6.824219 6.03125 6.867188 6.011719 6.914062 C 5.726562 7.539062 5.738281 8.535156 6.03125 9.171875 C 6.40625 9.988281 7.097656 10.421875 8.03125 10.421875 C 8.835938 10.425781 9.390625 10.140625 9.726562 9.550781 C 9.828125 9.378906 9.757812 9.390625 10.480469 9.390625 C 11.210938 9.390625 11.167969 9.382812 11.101562 9.542969 C 10.683594 10.554688 9.730469 11.238281 8.503906 11.394531 C 6.074219 11.703125 4.199219 9.605469 4.738281 7.179688 C 5.035156 5.828125 6.269531 4.757812 7.679688 4.625 C 7.914062 4.601562 8.464844 4.617188 8.671875 4.65625 "/>
<path style=" stroke:none;fill-rule:evenodd;fill:rgb(30.196078%,52.156863%,86.27451%);fill-opacity:1;" d="M 7.933594 4.621094 C 8.003906 4.621094 8.125 4.621094 8.195312 4.621094 C 8.269531 4.617188 8.210938 4.613281 8.0625 4.613281 C 7.917969 4.613281 7.859375 4.617188 7.933594 4.621094 M 7.628906 4.636719 C 7.65625 4.640625 7.707031 4.640625 7.738281 4.636719 C 7.773438 4.632812 7.75 4.628906 7.6875 4.628906 C 7.625 4.628906 7.597656 4.632812 7.628906 4.636719 M 8.378906 4.636719 C 8.410156 4.640625 8.457031 4.640625 8.484375 4.636719 C 8.511719 4.632812 8.488281 4.628906 8.433594 4.628906 C 8.375 4.628906 8.351562 4.632812 8.378906 4.636719 M 7.457031 4.65625 C 7.402344 4.667969 7.402344 4.667969 7.449219 4.667969 C 7.472656 4.667969 7.511719 4.664062 7.527344 4.65625 C 7.566406 4.640625 7.535156 4.640625 7.457031 4.65625 M 8.59375 4.65625 C 8.632812 4.667969 8.746094 4.675781 8.734375 4.667969 C 8.730469 4.664062 8.6875 4.65625 8.640625 4.652344 C 8.582031 4.644531 8.566406 4.648438 8.59375 4.65625 M 8.792969 4.6875 C 8.824219 4.699219 8.910156 4.710938 8.894531 4.699219 C 8.890625 4.695312 8.859375 4.6875 8.824219 4.683594 C 8.78125 4.675781 8.769531 4.675781 8.792969 4.6875 M 8.9375 4.71875 C 8.964844 4.734375 9.050781 4.742188 9.039062 4.730469 C 9.035156 4.726562 9.003906 4.71875 8.96875 4.714844 C 8.921875 4.707031 8.914062 4.710938 8.9375 4.71875 M 7.03125 4.753906 C 6.988281 4.761719 6.988281 4.765625 7.023438 4.765625 C 7.046875 4.765625 7.074219 4.761719 7.089844 4.753906 C 7.117188 4.734375 7.101562 4.734375 7.03125 4.753906 M 6.878906 4.800781 C 6.839844 4.816406 6.820312 4.832031 6.832031 4.828125 C 6.859375 4.828125 6.992188 4.769531 6.96875 4.769531 C 6.960938 4.769531 6.917969 4.785156 6.878906 4.800781 M 9.25 4.804688 C 9.261719 4.820312 9.542969 4.925781 9.546875 4.921875 C 9.550781 4.917969 9.488281 4.890625 9.410156 4.859375 C 9.273438 4.804688 9.234375 4.789062 9.25 4.804688 M 6.644531 4.894531 C 6.609375 4.90625 6.574219 4.925781 6.566406 4.933594 C 6.546875 4.949219 6.691406 4.894531 6.710938 4.878906 C 6.730469 4.859375 6.722656 4.859375 6.644531 4.894531 M 6.460938 4.980469 C 6.425781 5 6.402344 5.015625 6.40625 5.019531 C 6.410156 5.023438 6.523438 4.96875 6.542969 4.949219 C 6.5625 4.933594 6.511719 4.949219 6.460938 4.980469 M 6.289062 5.082031 C 6.191406 5.144531 6.136719 5.191406 6.214844 5.144531 C 6.347656 5.0625 6.402344 5.023438 6.378906 5.023438 C 6.378906 5.023438 6.335938 5.050781 6.289062 5.082031 M 9.792969 5.054688 C 9.8125 5.074219 9.839844 5.085938 9.847656 5.085938 C 9.863281 5.085938 9.835938 5.066406 9.785156 5.039062 C 9.761719 5.027344 9.765625 5.03125 9.792969 5.054688 M 9.878906 5.097656 C 9.890625 5.109375 9.953125 5.152344 10.023438 5.199219 C 10.09375 5.246094 10.167969 5.300781 10.191406 5.316406 C 10.222656 5.34375 10.226562 5.347656 10.207031 5.320312 C 10.195312 5.304688 10.125 5.25 10.046875 5.199219 C 9.894531 5.097656 9.855469 5.074219 9.878906 5.097656 M 5.902344 5.34375 L 5.832031 5.410156 L 5.90625 5.351562 C 5.976562 5.300781 5.996094 5.28125 5.980469 5.28125 C 5.976562 5.28125 5.945312 5.308594 5.902344 5.34375 M 10.425781 5.527344 C 10.53125 5.632812 10.652344 5.765625 10.691406 5.820312 C 10.734375 5.878906 10.769531 5.917969 10.769531 5.910156 C 10.769531 5.867188 10.460938 5.523438 10.3125 5.402344 C 10.269531 5.367188 10.320312 5.421875 10.425781 5.527344 M 5.632812 5.585938 C 5.546875 5.675781 5.476562 5.753906 5.480469 5.757812 C 5.484375 5.761719 5.488281 5.761719 5.492188 5.757812 C 5.511719 5.726562 5.671875 5.5625 5.742188 5.5 C 5.789062 5.457031 5.820312 5.425781 5.8125 5.425781 C 5.800781 5.425781 5.722656 5.496094 5.632812 5.585938 M 7.964844 5.597656 C 8.011719 5.597656 8.085938 5.597656 8.132812 5.597656 C 8.179688 5.59375 8.140625 5.589844 8.046875 5.589844 C 7.957031 5.589844 7.917969 5.59375 7.964844 5.597656 M 7.699219 5.613281 C 7.722656 5.613281 7.761719 5.613281 7.78125 5.609375 C 7.800781 5.609375 7.78125 5.605469 7.734375 5.605469 C 7.691406 5.605469 7.675781 5.609375 7.699219 5.613281 M 8.273438 5.605469 C 8.277344 5.609375 8.328125 5.617188 8.382812 5.621094 C 8.445312 5.625 8.476562 5.625 8.457031 5.617188 C 8.425781 5.601562 8.261719 5.59375 8.273438 5.605469 M 7.507812 5.644531 C 7.523438 5.648438 7.546875 5.648438 7.5625 5.644531 C 7.578125 5.640625 7.566406 5.636719 7.535156 5.636719 C 7.503906 5.636719 7.492188 5.640625 7.507812 5.644531 M 8.511719 5.636719 C 8.515625 5.640625 8.546875 5.648438 8.585938 5.652344 C 8.628906 5.660156 8.640625 5.65625 8.625 5.648438 C 8.601562 5.632812 8.496094 5.625 8.511719 5.636719 M 7.269531 5.703125 C 7.175781 5.738281 7.066406 5.792969 7.144531 5.765625 C 7.367188 5.691406 7.425781 5.664062 7.398438 5.667969 C 7.382812 5.667969 7.324219 5.683594 7.269531 5.703125 M 8.734375 5.695312 C 8.75 5.703125 8.78125 5.710938 8.808594 5.71875 C 8.839844 5.726562 8.847656 5.722656 8.832031 5.714844 C 8.820312 5.707031 8.785156 5.695312 8.761719 5.691406 C 8.730469 5.683594 8.71875 5.683594 8.734375 5.695312 M 8.910156 5.75 C 8.910156 5.757812 8.957031 5.78125 9.007812 5.808594 C 9.0625 5.835938 9.105469 5.851562 9.105469 5.847656 C 9.105469 5.84375 9.0625 5.820312 9.007812 5.792969 C 8.957031 5.765625 8.910156 5.746094 8.910156 5.75 M 5.398438 5.84375 L 5.335938 5.910156 L 5.402344 5.847656 C 5.46875 5.789062 5.480469 5.777344 5.46875 5.777344 C 5.464844 5.777344 5.433594 5.804688 5.398438 5.84375 M 6.984375 5.832031 C 6.921875 5.863281 6.867188 5.894531 6.855469 5.90625 C 6.847656 5.914062 6.898438 5.894531 6.964844 5.859375 C 7.082031 5.800781 7.121094 5.777344 7.101562 5.777344 C 7.097656 5.777344 7.046875 5.800781 6.984375 5.832031 M 5.203125 6.109375 C 5.132812 6.210938 5.066406 6.320312 5.050781 6.351562 C 5.035156 6.382812 5.03125 6.394531 5.042969 6.378906 C 5.214844 6.117188 5.34375 5.921875 5.335938 5.921875 C 5.332031 5.921875 5.273438 6.003906 5.203125 6.109375 M 9.339844 6.023438 C 9.382812 6.0625 9.421875 6.09375 9.429688 6.09375 C 9.433594 6.097656 9.40625 6.0625 9.359375 6.023438 C 9.253906 5.929688 9.238281 5.929688 9.339844 6.023438 M 10.855469 6.058594 C 10.925781 6.167969 10.960938 6.214844 10.960938 6.203125 C 10.960938 6.1875 10.847656 6.015625 10.835938 6.015625 C 10.832031 6.015625 10.839844 6.035156 10.855469 6.058594 M 6.519531 6.15625 C 6.457031 6.214844 6.390625 6.28125 6.375 6.304688 C 6.359375 6.328125 6.375 6.3125 6.414062 6.273438 C 6.457031 6.230469 6.523438 6.164062 6.566406 6.125 C 6.613281 6.082031 6.644531 6.046875 6.640625 6.046875 C 6.636719 6.050781 6.582031 6.097656 6.519531 6.15625 M 9.550781 6.214844 C 9.550781 6.222656 9.578125 6.265625 9.613281 6.308594 C 9.648438 6.355469 9.6875 6.410156 9.703125 6.429688 C 9.714844 6.453125 9.726562 6.464844 9.726562 6.457031 C 9.726562 6.4375 9.550781 6.199219 9.550781 6.214844 M 11.023438 6.355469 C 11.089844 6.488281 11.117188 6.535156 11.089844 6.460938 C 11.066406 6.398438 10.976562 6.222656 10.96875 6.222656 C 10.964844 6.222656 10.988281 6.28125 11.023438 6.355469 M 6.285156 6.410156 C 6.234375 6.464844 6.175781 6.550781 6.175781 6.570312 C 6.175781 6.578125 6.195312 6.554688 6.21875 6.519531 C 6.242188 6.484375 6.277344 6.4375 6.300781 6.410156 C 6.324219 6.386719 6.339844 6.367188 6.335938 6.367188 C 6.328125 6.367188 6.308594 6.386719 6.285156 6.410156 M 9.761719 6.539062 C 9.800781 6.609375 9.824219 6.636719 9.824219 6.617188 C 9.824219 6.605469 9.742188 6.480469 9.734375 6.480469 C 9.730469 6.480469 9.742188 6.507812 9.761719 6.539062 M 4.90625 6.644531 C 4.878906 6.714844 4.859375 6.777344 4.867188 6.769531 C 4.882812 6.753906 4.945312 6.59375 4.9375 6.59375 C 4.933594 6.59375 4.917969 6.617188 4.90625 6.644531 M 6.105469 6.683594 C 6.074219 6.734375 6.046875 6.78125 6.046875 6.789062 C 6.046875 6.800781 6.070312 6.765625 6.101562 6.71875 C 6.128906 6.671875 6.160156 6.621094 6.164062 6.613281 C 6.171875 6.601562 6.175781 6.59375 6.171875 6.59375 C 6.164062 6.59375 6.136719 6.632812 6.105469 6.683594 M 11.125 6.609375 C 11.117188 6.617188 10.863281 6.625 10.472656 6.628906 L 9.832031 6.632812 L 10.472656 6.636719 C 11.027344 6.640625 11.117188 6.636719 11.136719 6.617188 C 11.15625 6.589844 11.152344 6.582031 11.125 6.609375 M 4.789062 6.980469 C 4.75 7.105469 4.726562 7.238281 4.75 7.167969 C 4.78125 7.082031 4.832031 6.875 4.828125 6.871094 C 4.824219 6.867188 4.804688 6.914062 4.789062 6.980469 M 5.9375 7.046875 C 5.929688 7.074219 5.921875 7.109375 5.921875 7.121094 C 5.921875 7.132812 5.933594 7.113281 5.945312 7.074219 C 5.960938 7.035156 5.96875 7.003906 5.964844 7 C 5.960938 6.996094 5.949219 7.015625 5.9375 7.046875 M 5.898438 7.175781 C 5.890625 7.191406 5.886719 7.214844 5.890625 7.230469 C 5.890625 7.242188 5.898438 7.234375 5.90625 7.207031 C 5.917969 7.160156 5.914062 7.132812 5.898438 7.175781 M 4.714844 7.28125 C 4.707031 7.316406 4.707031 7.351562 4.710938 7.355469 C 4.714844 7.359375 4.722656 7.332031 4.726562 7.296875 C 4.734375 7.257812 4.734375 7.226562 4.730469 7.222656 C 4.726562 7.21875 4.71875 7.246094 4.714844 7.28125 M 5.867188 7.289062 C 5.859375 7.304688 5.855469 7.332031 5.859375 7.347656 C 5.859375 7.371094 5.863281 7.363281 5.871094 7.328125 C 5.886719 7.269531 5.882812 7.246094 5.867188 7.289062 M 4.691406 7.433594 C 4.691406 7.46875 4.695312 7.480469 4.699219 7.460938 C 4.703125 7.441406 4.703125 7.410156 4.699219 7.394531 C 4.695312 7.378906 4.691406 7.398438 4.691406 7.433594 M 5.828125 7.519531 C 5.828125 7.550781 5.832031 7.5625 5.835938 7.546875 C 5.839844 7.53125 5.839844 7.507812 5.835938 7.492188 C 5.832031 7.476562 5.828125 7.488281 5.828125 7.519531 M 4.660156 7.761719 C 4.660156 7.84375 4.664062 7.878906 4.667969 7.835938 C 4.671875 7.792969 4.671875 7.726562 4.667969 7.683594 C 4.664062 7.640625 4.660156 7.675781 4.660156 7.761719 M 5.796875 8.023438 C 5.800781 8.21875 5.800781 8.292969 5.804688 8.195312 C 5.808594 8.09375 5.808594 7.9375 5.804688 7.84375 C 5.800781 7.75 5.796875 7.832031 5.796875 8.023438 M 4.644531 8.007812 C 4.644531 8.050781 4.648438 8.066406 4.652344 8.042969 C 4.65625 8.019531 4.65625 7.984375 4.652344 7.964844 C 4.648438 7.945312 4.644531 7.964844 4.644531 8.007812 M 4.660156 8.257812 C 4.660156 8.339844 4.664062 8.375 4.667969 8.332031 C 4.671875 8.289062 4.671875 8.222656 4.667969 8.179688 C 4.664062 8.136719 4.660156 8.171875 4.660156 8.257812 M 4.683594 8.535156 C 4.6875 8.589844 4.695312 8.636719 4.699219 8.640625 C 4.707031 8.652344 4.699219 8.539062 4.6875 8.488281 C 4.679688 8.457031 4.675781 8.472656 4.683594 8.535156 M 5.824219 8.511719 C 5.828125 8.542969 5.832031 8.585938 5.839844 8.609375 C 5.847656 8.632812 5.851562 8.617188 5.84375 8.558594 C 5.835938 8.460938 5.824219 8.433594 5.824219 8.511719 M 5.855469 8.6875 C 5.855469 8.710938 5.863281 8.738281 5.871094 8.753906 C 5.882812 8.769531 5.886719 8.757812 5.878906 8.71875 C 5.863281 8.652344 5.855469 8.636719 5.855469 8.6875 M 5.886719 8.808594 C 5.886719 8.828125 5.894531 8.851562 5.90625 8.863281 C 5.917969 8.882812 5.917969 8.875 5.910156 8.839844 C 5.898438 8.78125 5.886719 8.769531 5.886719 8.808594 M 5.921875 8.921875 C 5.921875 8.9375 5.929688 8.960938 5.9375 8.976562 C 5.949219 8.992188 5.949219 8.988281 5.941406 8.953125 C 5.929688 8.894531 5.917969 8.878906 5.921875 8.921875 M 4.777344 9 C 4.789062 9.058594 4.800781 9.070312 4.800781 9.03125 C 4.800781 9.015625 4.792969 8.988281 4.785156 8.976562 C 4.769531 8.957031 4.769531 8.964844 4.777344 9 M 4.808594 9.117188 C 4.824219 9.167969 4.863281 9.261719 4.863281 9.242188 C 4.863281 9.222656 4.8125 9.070312 4.804688 9.070312 C 4.800781 9.070312 4.804688 9.09375 4.808594 9.117188 M 5.984375 9.089844 C 5.984375 9.109375 6.03125 9.214844 6.039062 9.214844 C 6.042969 9.214844 6.039062 9.1875 6.023438 9.15625 C 6 9.097656 5.984375 9.074219 5.984375 9.089844 M 6.046875 9.238281 C 6.046875 9.257812 6.128906 9.390625 6.136719 9.390625 C 6.140625 9.390625 6.125 9.359375 6.101562 9.316406 C 6.050781 9.226562 6.046875 9.222656 6.046875 9.238281 M 4.875 9.296875 C 4.886719 9.351562 4.980469 9.554688 4.988281 9.546875 C 4.992188 9.539062 4.941406 9.414062 4.882812 9.296875 L 4.863281 9.257812 L 4.875 9.296875 M 10.46875 9.402344 C 10.949219 9.40625 11.117188 9.414062 11.132812 9.429688 C 11.15625 9.445312 11.15625 9.445312 11.136719 9.421875 C 11.117188 9.394531 11.070312 9.390625 10.472656 9.394531 L 9.832031 9.398438 L 10.46875 9.402344 M 6.175781 9.46875 C 6.21875 9.546875 6.320312 9.675781 6.320312 9.652344 C 6.320312 9.644531 6.308594 9.625 6.296875 9.617188 C 6.28125 9.605469 6.246094 9.554688 6.214844 9.5 C 6.148438 9.398438 6.125 9.375 6.175781 9.46875 M 9.769531 9.484375 C 9.742188 9.527344 9.710938 9.582031 9.691406 9.613281 C 9.675781 9.640625 9.664062 9.664062 9.667969 9.664062 C 9.679688 9.664062 9.824219 9.421875 9.816406 9.414062 C 9.816406 9.410156 9.792969 9.441406 9.769531 9.484375 M 11.019531 9.683594 C 10.980469 9.765625 10.949219 9.832031 10.949219 9.835938 C 10.957031 9.84375 11.0625 9.636719 11.085938 9.578125 C 11.117188 9.5 11.09375 9.535156 11.019531 9.683594 M 5.035156 9.648438 C 5.058594 9.691406 5.078125 9.726562 5.082031 9.722656 C 5.089844 9.714844 5.007812 9.566406 4.996094 9.566406 C 4.992188 9.566406 5.007812 9.605469 5.035156 9.648438 M 6.382812 9.738281 C 6.410156 9.773438 6.480469 9.84375 6.539062 9.894531 C 6.644531 9.984375 6.644531 9.984375 6.558594 9.90625 C 6.511719 9.859375 6.441406 9.789062 6.402344 9.746094 C 6.335938 9.675781 6.332031 9.675781 6.382812 9.738281 M 9.597656 9.746094 C 9.570312 9.785156 9.507812 9.859375 9.457031 9.914062 C 9.386719 9.992188 9.390625 9.988281 9.480469 9.898438 C 9.585938 9.792969 9.675781 9.679688 9.660156 9.679688 C 9.652344 9.679688 9.628906 9.710938 9.597656 9.746094 M 10.890625 9.917969 C 10.867188 9.953125 10.847656 9.988281 10.847656 9.996094 C 10.847656 10 10.859375 9.992188 10.871094 9.976562 C 10.921875 9.898438 10.945312 9.855469 10.941406 9.855469 C 10.9375 9.855469 10.914062 9.882812 10.890625 9.917969 M 6.660156 9.996094 C 6.675781 10.015625 6.914062 10.179688 6.917969 10.171875 C 6.921875 10.171875 6.863281 10.125 6.789062 10.074219 C 6.714844 10.023438 6.65625 9.988281 6.660156 9.996094 M 9.242188 10.085938 C 9.121094 10.171875 9.113281 10.191406 9.230469 10.113281 C 9.355469 10.03125 9.351562 10.03125 9.335938 10.03125 C 9.328125 10.035156 9.285156 10.058594 9.242188 10.085938 M 5.355469 10.140625 C 5.382812 10.171875 5.421875 10.214844 5.441406 10.230469 C 5.460938 10.25 5.441406 10.222656 5.398438 10.171875 C 5.3125 10.070312 5.285156 10.046875 5.355469 10.140625 M 10.75 10.140625 C 10.703125 10.195312 10.683594 10.222656 10.691406 10.222656 C 10.695312 10.222656 10.71875 10.199219 10.742188 10.167969 C 10.785156 10.109375 10.792969 10.089844 10.75 10.140625 M 8.890625 10.28125 C 8.835938 10.300781 8.78125 10.320312 8.769531 10.320312 C 8.75 10.320312 8.75 10.324219 8.765625 10.332031 C 8.785156 10.339844 8.953125 10.28125 8.984375 10.253906 C 9.003906 10.234375 8.996094 10.238281 8.890625 10.28125 M 10.457031 10.46875 C 10.335938 10.59375 10.277344 10.660156 10.328125 10.613281 C 10.382812 10.566406 10.464844 10.488281 10.511719 10.4375 C 10.773438 10.160156 10.742188 10.179688 10.457031 10.46875 M 5.558594 10.371094 C 5.660156 10.488281 5.824219 10.636719 5.824219 10.609375 C 5.824219 10.597656 5.816406 10.59375 5.808594 10.59375 C 5.800781 10.59375 5.71875 10.519531 5.628906 10.429688 C 5.515625 10.316406 5.492188 10.296875 5.558594 10.371094 M 7.214844 10.3125 C 7.242188 10.324219 7.28125 10.335938 7.292969 10.335938 C 7.308594 10.335938 7.292969 10.324219 7.257812 10.3125 C 7.171875 10.28125 7.144531 10.28125 7.214844 10.3125 M 7.441406 10.382812 C 7.453125 10.394531 7.484375 10.398438 7.511719 10.398438 C 7.574219 10.398438 7.558594 10.390625 7.480469 10.378906 C 7.4375 10.371094 7.421875 10.375 7.441406 10.382812 M 8.558594 10.382812 C 8.503906 10.394531 8.503906 10.394531 8.550781 10.398438 C 8.578125 10.398438 8.609375 10.390625 8.625 10.382812 C 8.652344 10.367188 8.640625 10.367188 8.558594 10.382812 M 8.351562 10.414062 L 8.265625 10.425781 L 8.34375 10.429688 C 8.386719 10.429688 8.441406 10.421875 8.464844 10.414062 C 8.511719 10.398438 8.480469 10.398438 8.351562 10.414062 M 7.683594 10.425781 C 7.707031 10.429688 7.746094 10.429688 7.773438 10.425781 C 7.796875 10.421875 7.777344 10.421875 7.726562 10.421875 C 7.679688 10.421875 7.660156 10.421875 7.683594 10.425781 M 7.964844 10.445312 C 8.011719 10.445312 8.085938 10.445312 8.132812 10.445312 C 8.179688 10.441406 8.140625 10.4375 8.046875 10.4375 C 7.957031 10.4375 7.917969 10.441406 7.964844 10.445312 M 5.84375 10.636719 C 5.859375 10.65625 5.984375 10.757812 5.984375 10.746094 C 5.984375 10.742188 5.949219 10.710938 5.910156 10.679688 C 5.867188 10.644531 5.839844 10.625 5.84375 10.636719 M 10.203125 10.703125 C 10.195312 10.710938 10.125 10.761719 10.042969 10.816406 C 9.902344 10.910156 9.832031 10.964844 9.886719 10.9375 C 9.996094 10.875 10.25 10.6875 10.21875 10.6875 C 10.214844 10.6875 10.207031 10.695312 10.203125 10.703125 M 6 10.757812 C 6 10.765625 6.074219 10.816406 6.164062 10.875 C 6.34375 10.996094 6.386719 11.023438 6.359375 10.996094 C 6.335938 10.972656 6 10.75 6 10.757812 M 9.792969 10.976562 C 9.765625 11 9.761719 11.003906 9.785156 10.992188 C 9.835938 10.964844 9.863281 10.945312 9.847656 10.945312 C 9.839844 10.945312 9.8125 10.960938 9.792969 10.976562 M 6.472656 11.0625 C 6.507812 11.085938 6.558594 11.105469 6.558594 11.097656 C 6.558594 11.089844 6.464844 11.039062 6.449219 11.039062 C 6.445312 11.039062 6.457031 11.050781 6.472656 11.0625 M 6.578125 11.113281 C 6.589844 11.125 6.703125 11.167969 6.703125 11.160156 C 6.703125 11.15625 6.679688 11.140625 6.644531 11.128906 C 6.585938 11.105469 6.566406 11.097656 6.578125 11.113281 M 9.207031 11.226562 C 9.171875 11.238281 9.140625 11.253906 9.136719 11.257812 C 9.125 11.269531 9.214844 11.246094 9.273438 11.222656 C 9.335938 11.195312 9.289062 11.199219 9.207031 11.226562 M 7.039062 11.289062 C 7.070312 11.296875 7.121094 11.3125 7.152344 11.316406 C 7.183594 11.324219 7.164062 11.3125 7.113281 11.296875 C 7.003906 11.261719 6.953125 11.253906 7.039062 11.289062 M 8.988281 11.289062 C 8.945312 11.300781 8.902344 11.3125 8.890625 11.320312 C 8.855469 11.332031 8.992188 11.308594 9.0625 11.289062 C 9.148438 11.261719 9.085938 11.261719 8.988281 11.289062 M 7.21875 11.332031 C 7.222656 11.335938 7.253906 11.34375 7.289062 11.347656 C 7.332031 11.355469 7.34375 11.355469 7.320312 11.34375 C 7.289062 11.332031 7.203125 11.320312 7.21875 11.332031 M 7.359375 11.367188 C 7.363281 11.367188 7.40625 11.375 7.457031 11.378906 C 7.511719 11.386719 7.53125 11.386719 7.503906 11.375 C 7.464844 11.363281 7.347656 11.355469 7.359375 11.367188 M 8.527344 11.375 C 8.449219 11.394531 8.53125 11.394531 8.625 11.375 C 8.6875 11.367188 8.691406 11.363281 8.640625 11.363281 C 8.609375 11.363281 8.558594 11.371094 8.527344 11.375 M 7.621094 11.402344 C 7.652344 11.40625 7.707031 11.40625 7.738281 11.402344 C 7.773438 11.398438 7.746094 11.398438 7.679688 11.398438 C 7.613281 11.398438 7.585938 11.398438 7.621094 11.402344 M 8.269531 11.402344 C 8.296875 11.40625 8.347656 11.40625 8.378906 11.402344 C 8.414062 11.398438 8.390625 11.398438 8.328125 11.398438 C 8.265625 11.398438 8.238281 11.398438 8.269531 11.402344 M 7.910156 11.417969 C 7.96875 11.421875 8.0625 11.421875 8.117188 11.417969 C 8.171875 11.417969 8.121094 11.414062 8.007812 11.414062 C 7.894531 11.414062 7.847656 11.417969 7.910156 11.417969 "/>
<path style=" stroke:none;fill-rule:evenodd;fill:rgb(46.27451%,64.313725%,89.411765%);fill-opacity:1;" d="M 7.8125 4.636719 C 7.828125 4.640625 7.851562 4.640625 7.867188 4.636719 C 7.882812 4.632812 7.871094 4.628906 7.839844 4.628906 C 7.808594 4.628906 7.796875 4.632812 7.8125 4.636719 M 8.261719 4.636719 C 8.277344 4.640625 8.300781 4.640625 8.316406 4.636719 C 8.332031 4.632812 8.320312 4.628906 8.289062 4.628906 C 8.257812 4.628906 8.246094 4.632812 8.261719 4.636719 M 8.019531 5.578125 C 8.035156 5.582031 8.0625 5.582031 8.074219 5.578125 C 8.089844 5.574219 8.078125 5.570312 8.046875 5.570312 C 8.015625 5.570312 8.003906 5.574219 8.019531 5.578125 M 7.8125 5.59375 C 7.828125 5.597656 7.851562 5.597656 7.867188 5.59375 C 7.882812 5.589844 7.871094 5.585938 7.839844 5.585938 C 7.808594 5.585938 7.796875 5.589844 7.8125 5.59375 M 4.660156 8.007812 C 4.660156 8.070312 4.664062 8.09375 4.667969 8.058594 C 4.671875 8.027344 4.671875 7.976562 4.667969 7.949219 C 4.664062 7.917969 4.660156 7.945312 4.660156 8.007812 M 5.648438 10.457031 C 5.679688 10.488281 5.707031 10.511719 5.710938 10.511719 C 5.714844 10.511719 5.695312 10.488281 5.664062 10.457031 C 5.632812 10.425781 5.605469 10.398438 5.601562 10.398438 C 5.597656 10.398438 5.617188 10.425781 5.648438 10.457031 M 7.8125 10.441406 C 7.828125 10.445312 7.851562 10.445312 7.867188 10.441406 C 7.882812 10.4375 7.871094 10.4375 7.839844 10.4375 C 7.808594 10.4375 7.796875 10.4375 7.8125 10.441406 M 8.019531 10.460938 C 8.035156 10.464844 8.0625 10.464844 8.074219 10.460938 C 8.089844 10.453125 8.078125 10.453125 8.046875 10.453125 C 8.015625 10.453125 8.003906 10.453125 8.019531 10.460938 M 10.375 10.546875 L 10.328125 10.601562 L 10.378906 10.554688 C 10.410156 10.527344 10.433594 10.503906 10.433594 10.5 C 10.433594 10.488281 10.417969 10.5 10.375 10.546875 M 7.8125 11.402344 C 7.828125 11.40625 7.851562 11.40625 7.867188 11.402344 C 7.882812 11.398438 7.871094 11.394531 7.839844 11.394531 C 7.808594 11.394531 7.796875 11.398438 7.8125 11.402344 "/>
<path style=" stroke:none;fill-rule:evenodd;fill:rgb(51.764706%,67.45098%,89.411765%);fill-opacity:1;" d="M 7.972656 4.636719 C 8.023438 4.640625 8.105469 4.640625 8.15625 4.636719 C 8.207031 4.632812 8.164062 4.628906 8.0625 4.628906 C 7.960938 4.628906 7.921875 4.632812 7.972656 4.636719 M 7.550781 4.65625 C 7.527344 4.664062 7.542969 4.667969 7.601562 4.660156 C 7.648438 4.65625 7.691406 4.648438 7.695312 4.644531 C 7.707031 4.632812 7.589844 4.644531 7.550781 4.65625 M 8.464844 4.65625 C 8.5625 4.675781 8.636719 4.671875 8.550781 4.65625 C 8.515625 4.648438 8.464844 4.640625 8.441406 4.644531 C 8.402344 4.644531 8.410156 4.648438 8.464844 4.65625 M 7.382812 4.6875 C 7.34375 4.707031 7.386719 4.707031 7.441406 4.6875 C 7.472656 4.675781 7.472656 4.675781 7.449219 4.675781 C 7.429688 4.675781 7.402344 4.679688 7.382812 4.6875 M 8.695312 4.6875 C 8.765625 4.707031 8.820312 4.707031 8.769531 4.6875 C 8.746094 4.679688 8.710938 4.675781 8.6875 4.675781 C 8.652344 4.675781 8.652344 4.675781 8.695312 4.6875 M 7.238281 4.71875 C 7.21875 4.730469 7.21875 4.734375 7.230469 4.734375 C 7.246094 4.734375 7.269531 4.726562 7.289062 4.71875 C 7.308594 4.710938 7.3125 4.707031 7.296875 4.707031 C 7.28125 4.707031 7.257812 4.710938 7.238281 4.71875 M 8.871094 4.71875 C 8.890625 4.726562 8.914062 4.734375 8.929688 4.734375 C 8.941406 4.734375 8.941406 4.730469 8.921875 4.71875 C 8.902344 4.710938 8.878906 4.707031 8.863281 4.707031 C 8.847656 4.707031 8.851562 4.710938 8.871094 4.71875 M 9 4.753906 C 9.019531 4.757812 9.042969 4.765625 9.054688 4.765625 C 9.070312 4.765625 9.066406 4.761719 9.046875 4.753906 C 9.03125 4.746094 9.003906 4.738281 8.992188 4.738281 C 8.976562 4.738281 8.980469 4.742188 9 4.753906 M 6.984375 4.785156 C 6.964844 4.792969 6.960938 4.796875 6.976562 4.796875 C 6.988281 4.796875 7.015625 4.792969 7.03125 4.785156 C 7.050781 4.773438 7.054688 4.769531 7.039062 4.769531 C 7.027344 4.769531 7 4.777344 6.984375 4.785156 M 6.429688 5.015625 C 6.367188 5.050781 6.371094 5.0625 6.433594 5.03125 C 6.457031 5.019531 6.480469 5.003906 6.480469 5 C 6.480469 4.988281 6.476562 4.988281 6.429688 5.015625 M 9.664062 5 C 9.664062 5.003906 9.6875 5.019531 9.710938 5.03125 C 9.738281 5.046875 9.761719 5.054688 9.761719 5.050781 C 9.761719 5.042969 9.738281 5.03125 9.710938 5.015625 C 9.6875 5.003906 9.664062 4.996094 9.664062 5 M 6.265625 5.109375 C 6.179688 5.171875 6.144531 5.203125 6.214844 5.160156 C 6.316406 5.097656 6.375 5.054688 6.359375 5.058594 C 6.351562 5.058594 6.308594 5.082031 6.265625 5.109375 M 9.984375 5.191406 C 10.042969 5.230469 10.125 5.289062 10.167969 5.320312 C 10.238281 5.371094 10.242188 5.371094 10.191406 5.328125 C 10.128906 5.273438 9.914062 5.121094 9.894531 5.121094 C 9.886719 5.121094 9.929688 5.152344 9.984375 5.191406 M 5.859375 5.402344 C 5.804688 5.449219 5.765625 5.488281 5.769531 5.488281 C 5.785156 5.488281 5.980469 5.3125 5.96875 5.3125 C 5.964844 5.3125 5.914062 5.351562 5.859375 5.402344 M 10.34375 5.464844 C 10.464844 5.585938 10.527344 5.640625 10.527344 5.628906 C 10.527344 5.625 10.464844 5.5625 10.386719 5.496094 C 10.289062 5.410156 10.277344 5.398438 10.34375 5.464844 M 5.648438 5.597656 L 5.558594 5.6875 L 5.652344 5.601562 C 5.738281 5.519531 5.75 5.503906 5.738281 5.503906 C 5.738281 5.503906 5.695312 5.546875 5.648438 5.597656 M 7.734375 5.585938 C 7.699219 5.589844 7.742188 5.59375 7.832031 5.585938 C 7.921875 5.582031 7.996094 5.578125 8 5.574219 C 8.011719 5.5625 7.804688 5.570312 7.734375 5.585938 M 8.097656 5.574219 C 8.101562 5.578125 8.171875 5.582031 8.257812 5.589844 C 8.359375 5.59375 8.386719 5.59375 8.335938 5.582031 C 8.261719 5.570312 8.085938 5.5625 8.097656 5.574219 M 7.535156 5.617188 C 7.503906 5.625 7.503906 5.628906 7.527344 5.628906 C 7.546875 5.628906 7.578125 5.621094 7.601562 5.617188 C 7.632812 5.605469 7.632812 5.601562 7.609375 5.601562 C 7.589844 5.601562 7.558594 5.609375 7.535156 5.617188 M 8.480469 5.617188 C 8.503906 5.621094 8.535156 5.628906 8.550781 5.628906 C 8.578125 5.628906 8.574219 5.625 8.542969 5.617188 C 8.523438 5.609375 8.488281 5.601562 8.472656 5.601562 C 8.445312 5.601562 8.449219 5.605469 8.480469 5.617188 M 10.527344 5.652344 C 10.527344 5.65625 10.550781 5.679688 10.578125 5.703125 L 10.632812 5.753906 L 10.585938 5.699219 C 10.542969 5.652344 10.527344 5.640625 10.527344 5.652344 M 5.464844 5.796875 L 5.398438 5.863281 L 5.46875 5.800781 C 5.53125 5.742188 5.542969 5.726562 5.53125 5.726562 C 5.527344 5.726562 5.496094 5.757812 5.464844 5.796875 M 10.726562 5.894531 C 10.75 5.925781 10.773438 5.953125 10.777344 5.953125 C 10.789062 5.953125 10.722656 5.859375 10.699219 5.847656 C 10.691406 5.839844 10.703125 5.859375 10.726562 5.894531 M 5.242188 6.074219 C 5.164062 6.183594 5.066406 6.34375 5.089844 6.320312 C 5.109375 6.304688 5.34375 5.953125 5.335938 5.953125 C 5.332031 5.953125 5.289062 6.007812 5.242188 6.074219 M 9.34375 5.984375 C 9.34375 5.992188 9.394531 6.046875 9.460938 6.113281 C 9.523438 6.179688 9.605469 6.265625 9.636719 6.304688 C 9.679688 6.355469 9.675781 6.347656 9.625 6.28125 C 9.558594 6.191406 9.34375 5.964844 9.34375 5.984375 M 6.464844 6.191406 C 6.367188 6.289062 6.289062 6.375 6.289062 6.382812 C 6.289062 6.394531 6.320312 6.363281 6.359375 6.316406 C 6.398438 6.265625 6.484375 6.179688 6.546875 6.121094 C 6.613281 6.0625 6.65625 6.015625 6.652344 6.015625 C 6.644531 6.015625 6.558594 6.09375 6.464844 6.191406 M 10.851562 6.074219 C 10.90625 6.171875 10.953125 6.230469 10.910156 6.152344 C 10.894531 6.117188 10.863281 6.070312 10.847656 6.046875 C 10.820312 6.015625 10.820312 6.019531 10.851562 6.074219 M 5.015625 6.449219 C 5 6.476562 4.992188 6.5 4.996094 6.503906 C 5 6.507812 5.015625 6.488281 5.027344 6.457031 C 5.0625 6.386719 5.050781 6.382812 5.015625 6.449219 M 6.238281 6.445312 C 6.207031 6.480469 6.140625 6.59375 6.148438 6.59375 C 6.152344 6.59375 6.183594 6.550781 6.214844 6.503906 C 6.273438 6.414062 6.28125 6.390625 6.238281 6.445312 M 9.777344 6.53125 C 9.828125 6.628906 9.785156 6.625 10.484375 6.625 L 11.121094 6.625 L 11.117188 6.589844 C 11.117188 6.5625 11.113281 6.558594 11.109375 6.578125 C 11.101562 6.605469 11.058594 6.609375 10.46875 6.609375 L 9.839844 6.609375 L 9.804688 6.550781 C 9.769531 6.488281 9.75 6.476562 9.777344 6.53125 M 6.074219 6.707031 L 6.046875 6.761719 L 6.078125 6.71875 C 6.109375 6.683594 6.121094 6.65625 6.109375 6.65625 C 6.105469 6.65625 6.089844 6.679688 6.074219 6.707031 M 4.777344 7.082031 C 4.769531 7.105469 4.769531 7.125 4.773438 7.128906 C 4.777344 7.132812 4.785156 7.117188 4.789062 7.09375 C 4.796875 7.070312 4.796875 7.050781 4.792969 7.046875 C 4.789062 7.042969 4.78125 7.058594 4.777344 7.082031 M 4.742188 7.214844 C 4.738281 7.242188 4.734375 7.269531 4.742188 7.273438 C 4.746094 7.277344 4.753906 7.257812 4.757812 7.230469 C 4.769531 7.164062 4.757812 7.152344 4.742188 7.214844 M 5.832031 7.367188 C 5.828125 7.402344 5.824219 7.429688 5.828125 7.433594 C 5.832031 7.4375 5.839844 7.414062 5.847656 7.382812 C 5.851562 7.351562 5.855469 7.320312 5.851562 7.316406 C 5.847656 7.3125 5.839844 7.335938 5.832031 7.367188 M 4.710938 7.390625 C 4.707031 7.429688 4.703125 7.460938 4.707031 7.464844 C 4.710938 7.46875 4.71875 7.441406 4.726562 7.40625 C 4.730469 7.371094 4.734375 7.335938 4.730469 7.332031 C 4.726562 7.328125 4.71875 7.355469 4.710938 7.390625 M 5.800781 7.554688 C 5.796875 7.589844 5.792969 7.625 5.796875 7.628906 C 5.800781 7.632812 5.808594 7.605469 5.816406 7.566406 C 5.820312 7.53125 5.824219 7.5 5.820312 7.496094 C 5.816406 7.492188 5.808594 7.515625 5.800781 7.554688 M 4.691406 7.566406 C 4.691406 7.597656 4.695312 7.613281 4.699219 7.597656 C 4.703125 7.582031 4.703125 7.554688 4.699219 7.539062 C 4.695312 7.523438 4.691406 7.539062 4.691406 7.566406 M 4.675781 7.695312 C 4.675781 7.734375 4.679688 7.75 4.683594 7.730469 C 4.6875 7.710938 4.6875 7.679688 4.683594 7.660156 C 4.679688 7.640625 4.675781 7.65625 4.675781 7.695312 M 5.773438 7.90625 C 5.769531 7.96875 5.773438 8.074219 5.777344 8.140625 C 5.785156 8.238281 5.785156 8.210938 5.789062 8.027344 C 5.789062 7.78125 5.78125 7.710938 5.773438 7.90625 M 4.671875 8.320312 C 4.671875 8.351562 4.679688 8.40625 4.6875 8.441406 C 4.699219 8.488281 4.699219 8.476562 4.691406 8.390625 C 4.683594 8.273438 4.671875 8.230469 4.671875 8.320312 M 5.796875 8.425781 C 5.796875 8.441406 5.800781 8.476562 5.808594 8.503906 C 5.820312 8.546875 5.820312 8.546875 5.820312 8.511719 C 5.820312 8.488281 5.816406 8.453125 5.808594 8.433594 C 5.796875 8.402344 5.796875 8.398438 5.796875 8.425781 M 4.707031 8.59375 C 4.707031 8.613281 4.714844 8.648438 4.71875 8.671875 C 4.738281 8.726562 4.738281 8.667969 4.71875 8.601562 C 4.710938 8.558594 4.707031 8.554688 4.707031 8.59375 M 5.828125 8.617188 C 5.828125 8.632812 5.832031 8.664062 5.839844 8.6875 C 5.851562 8.71875 5.851562 8.722656 5.851562 8.695312 C 5.851562 8.679688 5.847656 8.644531 5.839844 8.625 C 5.828125 8.59375 5.828125 8.589844 5.828125 8.617188 M 4.738281 8.769531 C 4.738281 8.78125 4.746094 8.804688 4.753906 8.824219 C 4.761719 8.84375 4.765625 8.847656 4.765625 8.832031 C 4.765625 8.820312 4.757812 8.792969 4.753906 8.777344 C 4.742188 8.753906 4.738281 8.753906 4.738281 8.769531 M 9.820312 9.4375 C 9.792969 9.46875 9.753906 9.535156 9.765625 9.535156 C 9.769531 9.535156 9.789062 9.511719 9.804688 9.480469 L 9.839844 9.425781 L 10.46875 9.425781 C 11.058594 9.425781 11.101562 9.425781 11.109375 9.453125 C 11.113281 9.472656 11.117188 9.472656 11.117188 9.445312 L 11.121094 9.40625 L 10.484375 9.40625 C 9.894531 9.40625 9.84375 9.410156 9.820312 9.4375 M 6.175781 9.496094 C 6.195312 9.53125 6.226562 9.574219 6.242188 9.59375 C 6.261719 9.609375 6.25 9.589844 6.222656 9.542969 C 6.15625 9.441406 6.128906 9.414062 6.175781 9.496094 M 9.71875 9.601562 C 9.707031 9.625 9.699219 9.648438 9.703125 9.648438 C 9.707031 9.648438 9.722656 9.625 9.734375 9.601562 C 9.75 9.574219 9.757812 9.550781 9.753906 9.550781 C 9.75 9.550781 9.734375 9.574219 9.71875 9.601562 M 6.3125 9.679688 C 6.371094 9.753906 6.566406 9.953125 6.617188 9.988281 C 6.640625 10.003906 6.621094 9.984375 6.574219 9.9375 C 6.523438 9.890625 6.4375 9.804688 6.378906 9.746094 C 6.324219 9.6875 6.292969 9.65625 6.3125 9.679688 M 9.660156 9.691406 C 9.609375 9.753906 9.59375 9.78125 9.609375 9.769531 C 9.632812 9.757812 9.703125 9.664062 9.691406 9.664062 C 9.6875 9.664062 9.675781 9.675781 9.660156 9.691406 M 9.421875 9.964844 C 9.367188 10.015625 9.292969 10.078125 9.261719 10.101562 C 9.214844 10.140625 9.21875 10.140625 9.28125 10.097656 C 9.351562 10.046875 9.550781 9.871094 9.535156 9.871094 C 9.53125 9.871094 9.480469 9.914062 9.421875 9.964844 M 10.878906 9.90625 C 10.867188 9.925781 10.847656 9.960938 10.835938 9.980469 C 10.824219 10 10.816406 10.015625 10.820312 10.015625 C 10.832031 10.015625 10.914062 9.886719 10.90625 9.878906 C 10.902344 9.871094 10.890625 9.886719 10.878906 9.90625 M 6.6875 10.035156 C 6.726562 10.074219 6.929688 10.207031 6.949219 10.207031 C 6.960938 10.207031 6.945312 10.195312 6.921875 10.179688 C 6.894531 10.167969 6.824219 10.121094 6.769531 10.082031 C 6.710938 10.042969 6.675781 10.023438 6.6875 10.035156 M 5.425781 10.191406 C 5.472656 10.25 5.511719 10.300781 5.515625 10.300781 C 5.519531 10.304688 5.523438 10.304688 5.527344 10.300781 C 5.53125 10.300781 5.488281 10.25 5.4375 10.191406 L 5.339844 10.089844 L 5.425781 10.191406 M 10.636719 10.261719 C 10.613281 10.289062 10.523438 10.382812 10.4375 10.472656 C 10.335938 10.570312 10.316406 10.597656 10.382812 10.539062 C 10.5 10.433594 10.707031 10.207031 10.683594 10.207031 C 10.679688 10.207031 10.65625 10.230469 10.636719 10.261719 M 5.535156 10.324219 C 5.535156 10.328125 5.59375 10.382812 5.660156 10.449219 L 5.785156 10.566406 L 5.664062 10.445312 C 5.554688 10.328125 5.535156 10.3125 5.535156 10.324219 M 7.511719 10.414062 C 7.578125 10.433594 7.636719 10.433594 7.585938 10.414062 C 7.5625 10.410156 7.527344 10.402344 7.503906 10.402344 C 7.46875 10.402344 7.46875 10.40625 7.511719 10.414062 M 8.496094 10.414062 C 8.464844 10.425781 8.460938 10.429688 8.488281 10.429688 C 8.503906 10.429688 8.539062 10.421875 8.558594 10.414062 C 8.589844 10.40625 8.59375 10.402344 8.566406 10.402344 C 8.550781 10.402344 8.519531 10.410156 8.496094 10.414062 M 7.742188 10.449219 C 7.816406 10.460938 8.011719 10.46875 8 10.457031 C 7.996094 10.453125 7.921875 10.449219 7.832031 10.445312 C 7.726562 10.4375 7.695312 10.441406 7.742188 10.449219 M 8.191406 10.449219 L 8.089844 10.457031 L 8.175781 10.460938 C 8.222656 10.460938 8.296875 10.457031 8.335938 10.449219 C 8.429688 10.433594 8.351562 10.433594 8.191406 10.449219 M 5.792969 10.566406 C 5.792969 10.566406 5.816406 10.589844 5.84375 10.617188 L 5.894531 10.664062 L 5.847656 10.613281 C 5.804688 10.5625 5.792969 10.550781 5.792969 10.566406 M 10.183594 10.699219 C 10.121094 10.757812 10.144531 10.746094 10.230469 10.675781 C 10.253906 10.65625 10.269531 10.640625 10.261719 10.640625 C 10.253906 10.640625 10.21875 10.667969 10.183594 10.699219 M 9.992188 10.832031 C 9.933594 10.875 9.890625 10.910156 9.894531 10.910156 C 9.910156 10.910156 10.113281 10.769531 10.113281 10.757812 C 10.113281 10.75 10.113281 10.75 9.992188 10.832031 M 6.175781 10.855469 C 6.175781 10.867188 6.335938 10.980469 6.34375 10.972656 C 6.347656 10.96875 6.3125 10.941406 6.261719 10.90625 C 6.214844 10.875 6.175781 10.851562 6.175781 10.855469 M 6.433594 11.015625 C 6.433594 11.019531 6.453125 11.035156 6.480469 11.046875 C 6.507812 11.0625 6.527344 11.070312 6.527344 11.066406 C 6.527344 11.058594 6.507812 11.046875 6.480469 11.03125 C 6.453125 11.019531 6.433594 11.011719 6.433594 11.015625 M 8.96875 11.28125 C 8.949219 11.289062 8.945312 11.292969 8.960938 11.292969 C 8.972656 11.292969 9 11.289062 9.015625 11.28125 C 9.035156 11.269531 9.039062 11.265625 9.023438 11.265625 C 9.011719 11.265625 8.984375 11.273438 8.96875 11.28125 M 7.191406 11.3125 C 7.210938 11.320312 7.234375 11.324219 7.246094 11.324219 C 7.261719 11.324219 7.261719 11.320312 7.238281 11.3125 C 7.222656 11.304688 7.195312 11.296875 7.183594 11.296875 C 7.167969 11.296875 7.171875 11.304688 7.191406 11.3125 M 8.832031 11.3125 C 8.800781 11.324219 8.796875 11.324219 8.824219 11.324219 C 8.839844 11.324219 8.871094 11.320312 8.886719 11.3125 C 8.929688 11.292969 8.886719 11.292969 8.832031 11.3125 M 7.335938 11.34375 C 7.367188 11.355469 7.453125 11.367188 7.4375 11.355469 C 7.433594 11.351562 7.402344 11.34375 7.367188 11.339844 C 7.324219 11.332031 7.3125 11.332031 7.335938 11.34375 M 8.648438 11.34375 C 8.605469 11.355469 8.605469 11.355469 8.640625 11.355469 C 8.660156 11.355469 8.699219 11.351562 8.71875 11.34375 C 8.773438 11.328125 8.714844 11.328125 8.648438 11.34375 M 7.535156 11.375 C 7.574219 11.386719 7.707031 11.398438 7.695312 11.386719 C 7.691406 11.382812 7.644531 11.375 7.59375 11.371094 C 7.53125 11.367188 7.511719 11.367188 7.535156 11.375 M 8.367188 11.375 C 8.300781 11.386719 8.300781 11.386719 8.351562 11.386719 C 8.382812 11.390625 8.441406 11.382812 8.480469 11.375 C 8.574219 11.359375 8.476562 11.359375 8.367188 11.375 M 7.949219 11.402344 C 7.984375 11.40625 8.046875 11.40625 8.085938 11.402344 C 8.121094 11.398438 8.089844 11.398438 8.015625 11.398438 C 7.941406 11.398438 7.910156 11.398438 7.949219 11.402344 "/>
</g>
</svg>
